<svg width="56" height="40" viewBox="0 0 56 40" fill="none" xmlns="http://www.w3.org/2000/svg">
<path d="M0 8.75H24.375L26.25 12.5H1.875L0 8.75ZM2.5 16.25H26.875L28.75 20H4.375L2.5 16.25ZM43.125 36.25C45.2 36.25 46.875 34.575 46.875 32.5C46.875 30.425 45.2 28.75 43.125 28.75C41.05 28.75 39.375 30.425 39.375 32.5C39.375 34.575 41.05 36.25 43.125 36.25ZM46.875 13.75H40.625V20H51.775L46.875 13.75ZM18.125 36.25C20.2 36.25 21.875 34.575 21.875 32.5C21.875 30.425 20.2 28.75 18.125 28.75C16.05 28.75 14.375 30.425 14.375 32.5C14.375 34.575 16.05 36.25 18.125 36.25ZM48.125 10L55.625 20V32.5H50.625C50.625 36.65 47.275 40 43.125 40C38.975 40 35.625 36.65 35.625 32.5H25.625C25.625 36.65 22.25 40 18.125 40C13.975 40 10.625 36.65 10.625 32.5H5.625V23.75H10.625V27.5H12.525C13.9 25.975 15.9 25 18.125 25C20.35 25 22.35 25.975 23.725 27.5H35.625V5H5.625C5.625 2.225 7.85 0 10.625 0H40.625V10H48.125Z" fill="#BCEDEA"/>
</svg>
